<?xml version="1.0" encoding="UTF-8"?>
<svg width="404px" height="435px" viewBox="0 0 404 435" version="1.1" xmlns="http://www.w3.org/2000/svg" xmlns:xlink="http://www.w3.org/1999/xlink">
    <!-- Generator: Sketch 54.1 (76490) - https://sketchapp.com -->
    <title>Path</title>
    <desc>Created with Sketch.</desc>
    <g id="Design" stroke="none" stroke-width="1" fill="none" fill-rule="evenodd">
        <g id="Web" transform="translate(-162.000000, -3428.000000)" fill="#ED5464" fill-rule="nonzero">
            <g id="section-5" transform="translate(94.000000, 3357.000000)">
                <path d="M402.123132,126.966804 C439.478389,152.95881 483.462888,170.953275 495.669112,201.049281 C507.770111,231.040057 488.092835,273.237604 479.253845,324.590231 C470.309628,375.837626 472.203698,436.345331 444.634466,478.227186 C417.170461,520.109041 360.243154,543.575508 312.786195,530.52689 C265.329235,517.478272 227.447848,467.914569 179.254306,432.767484 C131.060764,397.515169 72.5550663,376.679472 70.5557709,343.742235 C68.4512494,310.804997 122.85313,265.766218 152.421657,224.410517 C181.884958,183.054816 186.620131,145.382193 207.665346,114.128648 C228.710561,82.8751025 265.960591,58.1458665 300.05384,62.6707906 C334.041862,67.3009454 364.767876,101.080029 402.123132,126.966804 Z" id="Path" transform="translate(284.996449, 298.134848) scale(-1, 1) rotate(-21.000000) translate(-284.996449, -298.134848) "></path>
            </g>
        </g>
    </g>
</svg>