<?xml version="1.0" encoding="UTF-8"?>
<svg width="585px" height="487px" viewBox="0 0 585 487" version="1.1" xmlns="http://www.w3.org/2000/svg" xmlns:xlink="http://www.w3.org/1999/xlink">
    <!-- Generator: Sketch 54.1 (76490) - https://sketchapp.com -->
    <title>Path</title>
    <desc>Created with Sketch.</desc>
    <g id="Design" stroke="none" stroke-width="1" fill="none" fill-rule="evenodd">
        <g id="Web" transform="translate(-164.000000, -2338.000000)" fill="#D88EE2">
            <g id="section-3" transform="translate(122.000000, 2323.000000)">
                <path d="M602.871959,90.3783726 C627.730333,119.106763 593.963177,195.453444 590.658307,268.914168 C587.497126,342.243712 614.798231,412.818479 589.939856,464.109806 C565.081482,515.532313 487.776248,547.802559 423.115736,536.389911 C358.455225,524.977263 306.295745,469.75054 235.600253,418.459213 C165.04845,367.036706 75.8169439,319.418416 59.1489009,256.452081 C42.3371678,193.616926 97.9452079,115.302547 168.640701,86.7053364 C239.192503,58.108126 324.975449,78.9657244 409.608874,79.8839834 C494.242299,80.8022425 577.869894,61.7811622 602.871959,90.3783726 Z" id="Path" transform="translate(334.033375, 305.184613) rotate(-17.000000) translate(-334.033375, -305.184613) "></path>
            </g>
        </g>
    </g>
</svg>