<svg width="20" height="20" viewBox="0 0 20 20" fill="none" xmlns="http://www.w3.org/2000/svg">
<path fill-rule="evenodd" clip-rule="evenodd" d="M4.95662 4C5.25517 1.81519 7.47244 0 10.0001 0C12.5278 0 14.7451 1.81519 15.0436 4H17.9689C19.0907 4 20 4.89543 20 6C20 6.09464 19.9932 6.18916 19.9796 6.28284L18.2387 18.2828C18.0957 19.2681 17.2388 20 16.228 20H3.77221C2.76146 20 1.90451 19.2681 1.76157 18.2828L0.0206718 6.28284C-0.137963 5.18937 0.633631 4.17631 1.74408 4.0201C1.83922 4.00672 1.9352 4 2.03131 4H4.95662ZM12.9735 4C12.6648 2.93808 11.4199 2 10.0001 2C8.58039 2 7.3355 2.93808 7.02679 4H12.9735ZM2.03131 6H4.9225V8H6.95355V6H13.0467V8H15.0778V6H17.9689L16.228 18H3.77221L2.03131 6Z" fill="white"/>
</svg>
