<?xml version="1.0" encoding="UTF-8"?>
<svg width="600px" height="432px" viewBox="0 0 600 432" version="1.1" xmlns="http://www.w3.org/2000/svg" xmlns:xlink="http://www.w3.org/1999/xlink">
    <!-- Generator: Sketch 62 (91390) - https://sketch.com -->
    <title>5e5fc8bc2a5865142764831e_blob-balm</title>
    <desc>Created with Sketch.</desc>
    <g id="Page-1" stroke="none" stroke-width="1" fill="none" fill-rule="evenodd">
        <g id="5e5fc8bc2a5865142764831e_blob-balm" transform="translate(-40.000000, -95.000000)" fill="#FA9B9F" fill-rule="nonzero">
            <path d="M504.238749,161.827456 C554.96716,191.324455 612.56764,218.240466 636.93227,262.731772 C661.42184,307.223078 652.67557,369.166775 620.43929,410.462572 C588.32796,451.635466 532.60168,472.037557 486.246407,490.227372 C439.891138,508.417188 402.906881,524.394729 356.926452,536.439337 C311.070971,548.483944 256.219319,556.841427 196.994528,542.707449 C137.769737,528.696375 74.1718081,492.316743 65.9253181,443.7696 C57.8037751,395.345361 104.908724,334.630705 138.144577,280.552875 C171.38043,226.475044 190.872134,179.034039 226.481976,144.743778 C262.091819,110.453517 314.069695,89.4369062 361.924325,94.8446892 C409.778956,100.375376 453.510341,132.330458 504.238749,161.827456 Z" id="Path" transform="translate(357.998863, 322.055810) rotate(22.000000) translate(-357.998863, -322.055810) "></path>
        </g>
    </g>
</svg>