<svg height='100px' width='100px'  fill="#1A1A1A" xmlns="http://www.w3.org/2000/svg" xmlns:xlink="http://www.w3.org/1999/xlink" version="1.1" x="0px" y="0px" viewBox="0 0 512 512" enable-background="new 0 0 512 512" xml:space="preserve"><g><path d="M290.835,303.914c15.287-10.91,25.282-28.779,25.282-48.949V230.42c0-0.074-0.005-0.147-0.006-0.222   c4.315-2.101,7.295-6.515,7.295-11.637v-9.251c0-20.911-15.822-38.121-36.146-40.327c-4.71-6.861-12.607-11.364-21.558-11.364   h-27.007c-27.672,0-50.104,22.432-50.104,50.104v9.085c0,5.423,2.944,10.148,7.313,12.697c-0.005,0.306-0.023,0.608-0.023,0.915   v24.544c0,20.17,9.996,38.039,25.282,48.949c-33.675,13.776-57.464,46.894-57.464,85.468c0,4.971,4.029,9,9,9s9-4.029,9-9   c0-40.969,33.331-74.3,74.3-74.3s74.3,33.331,74.3,74.3c0,4.971,4.029,9,9,9s9-4.029,9-9   C348.3,350.807,324.51,317.689,290.835,303.914z M256,297.082c-23.224,0-42.118-18.894-42.118-42.117v-23.453h32.49   c12.389,0,20.652-3.293,27.785-9.338c0.19-0.16,0.381-0.318,0.568-0.481c0.333-0.292,0.662-0.594,0.99-0.898   c0.123-0.115,0.249-0.224,0.371-0.341c0.081-0.076,0.164-0.148,0.245-0.225c0.204-0.199,0.395-0.414,0.595-0.618   c0.275-0.28,0.549-0.56,0.817-0.848c0.232-0.251,0.46-0.506,0.687-0.763c0.307-0.348,0.607-0.703,0.904-1.063   c0.189-0.23,0.379-0.46,0.564-0.695c0.357-0.454,0.701-0.92,1.04-1.391c0.115-0.16,0.235-0.314,0.347-0.476   c0.419-0.602,0.826-1.216,1.215-1.845c1.504-2.433,4.583-3.56,7.167-2.335c3.003,1.423,4.042,5.081,2.359,7.842   c-0.787,1.291-1.624,2.536-2.507,3.735c-2.946,3.997-0.202,9.725,4.763,9.74c0.042,0,0.084,0,0.126,0h3.709v23.453   C298.118,278.188,279.224,297.082,256,297.082z"></path><path d="M431.47,104.653c-0.002-0.024-0.004-0.049-0.006-0.073C426.658,46.78,378.088,1.214,319.069,1.214H109.778   c-16.343,0-29.639,13.295-29.639,29.638v450.295c0,16.343,13.296,29.638,29.639,29.638h292.444   c16.343,0,29.639-13.295,29.639-29.638V114.006C431.861,110.856,431.725,107.738,431.47,104.653z M413.861,481.147   c0,6.417-5.221,11.638-11.639,11.638H109.778c-6.417,0-11.639-5.221-11.639-11.638V30.853c0-6.417,5.221-11.638,11.639-11.638   h209.291c46.298,0,84.944,33.366,93.17,77.313h-58.981c-13.752,0-24.941-11.188-24.941-24.941v-30.8c0-4.971-4.029-9-9-9   s-9,4.029-9,9v30.8c0,23.678,19.263,42.941,42.941,42.941h60.603V481.147z"></path></g><path d="M357.057,114.48c42.97,1.735,55.637,42.643,56.804,98.418l11.354-100.165c0,0-3.495-8.738-10.923-8.738  C406.864,103.995,357.057,114.48,357.057,114.48z"></path></svg>