<svg height='100px' width='100px'  fill="#1A1A1A" xmlns="http://www.w3.org/2000/svg" xmlns:xlink="http://www.w3.org/1999/xlink" version="1.1" x="0px" y="0px" viewBox="0 0 64 64" style="enable-background:new 0 0 64 64;" xml:space="preserve"><title> icon</title><desc> icon for website, application, printing, document, poster design, etc.</desc><metadata><?xpacket begin="&#239;&#187;&#191;" id="W5M0MpCehiHzreSzNTczkc9d"?><x:xmpmeta xmlns:x="adobe:ns:meta/" x:xmptk="Adobe XMP Core 5.6-c137 79.159547, 2016/07/07-11:39:24        "></x:xmpmeta><?xpacket end="w"?></metadata><g><path d="M33.874,27.514C33.698,27.197,33.363,27,33,27h-2c-0.363,0-0.698,0.197-0.874,0.514l-5,9   c-0.136,0.245-0.163,0.536-0.075,0.802L27.612,45H27c-0.552,0-1,0.448-1,1v4c0,0.552,0.448,1,1,1v12c0,0.552,0.448,1,1,1h8   c0.552,0,1-0.448,1-1V51c0.552,0,1-0.448,1-1v-4c0-0.552-0.448-1-1-1h-0.612l2.561-7.684c0.088-0.266,0.062-0.557-0.075-0.802   L33.874,27.514z M35,47h1v2h-8v-2h1H35z M35,62h-6V51h6V62z M34.279,45H33v-7h1v-2h-4v2h1v7h-1.279l-2.633-7.899l4.5-8.101h0.823   l4.5,8.101L34.279,45z"></path><path d="M29.267,19.224C29.737,20.268,30.783,21,32,21c1.217,0,2.262-0.731,2.732-1.774c8.041,1.235,14.353,7.889,15.161,15.992   C48.786,35.659,48,36.737,48,38c0,1.654,1.346,3,3,3s3-1.346,3-3c0-1.341-0.89-2.466-2.106-2.849   C51.238,28.094,46.832,22.003,40.667,19H46v1c0,0.552,0.448,1,1,1h4c0.552,0,1-0.448,1-1v-4c0-0.552-0.448-1-1-1h-4   c-0.552,0-1,0.448-1,1v1H34.816c-0.414-1.161-1.514-2-2.816-2s-2.402,0.839-2.816,2H18v-1c0-0.552-0.448-1-1-1h-4   c-0.552,0-1,0.448-1,1v4c0,0.552,0.448,1,1,1h4c0.552,0,1-0.448,1-1v-1h5.306c-6.158,2.999-10.545,9.079-11.2,16.151   C10.89,35.534,10,36.659,10,38c0,1.654,1.346,3,3,3s3-1.346,3-3c0-1.263-0.786-2.341-1.893-2.783   C14.914,27.089,21.215,20.459,29.267,19.224z M51,39c-0.551,0-1-0.449-1-1s0.449-1,1-1s1,0.449,1,1S51.551,39,51,39z M48,17h2v2h-2   V17z M16,19h-2v-2h2V19z M32,17c0.551,0,1,0.449,1,1s-0.449,1-1,1s-1-0.449-1-1S31.449,17,32,17z M13,39c-0.551,0-1-0.449-1-1   s0.449-1,1-1s1,0.449,1,1S13.551,39,13,39z"></path><path d="M63,0H1C0.448,0,0,0.448,0,1v8v46c0,0.552,0.448,1,1,1h24v-2H2V10h60v44H39v2h24c0.552,0,1-0.448,1-1V9V1   C64,0.448,63.552,0,63,0z M2,8V2h60v6H2z"></path><rect x="6" y="4" width="2" height="2"></rect><rect x="10" y="4" width="2" height="2"></rect><rect x="14" y="4" width="2" height="2"></rect><rect x="52" y="4" width="6" height="2"></rect><rect x="31" y="54" width="2" height="4"></rect></g></svg>